<svg width="16" height="17" viewBox="0 0 16 17" fill="none" xmlns="http://www.w3.org/2000/svg">
<rect y="0.5" width="16" height="16" rx="8" fill="#FB9333"/>
<path d="M6.76616 8.66254C6.76616 8.66254 5.85602 8.39673 4.2056 8.85839C2.55519 9.32005 2.60189 10.7883 2.60189 10.7883" stroke="white" stroke-width="0.5"/>
<path d="M13.3375 12.5679C13.3375 12.5679 14.0818 9.10013 10.9383 7.90534C7.79484 6.71055 6.52729 8.75947 6.52729 8.75947" stroke="white" stroke-width="0.5"/>
<path d="M2.60187 10.7883C2.60187 10.7883 2.68625 14.7563 6.29094 15.3828" stroke="white" stroke-width="0.5"/>
<path d="M2.60205 10.7683C2.60205 10.7683 3.21685 13.0548 7.75652 13.3721C12.2962 13.6895 13.3373 12.5877 13.3373 12.5877C13.3373 12.5877 13.0445 16.592 6.27112 15.3824" stroke="white" stroke-width="0.5"/>
<path d="M9.19847 2.83622C8.27016 3.35447 7.39856 4.78165 7.45781 4.88509C7.51707 4.98853 9.35972 5.17395 10.3172 4.49035C11.2746 3.80675 11.7599 2.63692 11.7183 2.5211C11.6768 2.40528 10.1268 2.31796 9.19847 2.83622Z" stroke="white" stroke-width="0.5" stroke-linecap="round"/>
<path d="M9.94963 9.35409C9.69254 10.8121 8.25412 11.7925 6.72144 11.5223C5.18875 11.252 4.1724 9.83878 4.42949 8.38074C4.68658 6.9227 6.125 5.94231 7.65768 6.21257C9.19037 6.48282 10.2067 7.89605 9.94963 9.35409Z" stroke="white" stroke-width="0.5"/>
</svg>
